<svg width="320" height="200" viewBox="0 0 320 200" fill="none" xmlns="http://www.w3.org/2000/svg" role="img" aria-labelledby="title desc">
  <title id="title">Panel de métricas optimizadas</title>
  <desc id="desc">Ilustración abstracta de gráficas y tarjetas de métricas que representan mejoras de rendimiento.</desc>
  <rect x="8" y="16" width="304" height="168" rx="16" fill="url(#paint0_linear)" />
  <rect x="32" y="40" width="96" height="56" rx="12" fill="white" opacity="0.9" />
  <rect x="144" y="40" width="144" height="24" rx="12" fill="white" opacity="0.5" />
  <rect x="144" y="72" width="120" height="12" rx="6" fill="white" opacity="0.35" />
  <path d="M48 64L70 52L88 68L116 44" stroke="#2563EB" stroke-width="6" stroke-linecap="round" stroke-linejoin="round" opacity="0.8" />
  <circle cx="48" cy="64" r="5" fill="#2563EB" />
  <circle cx="70" cy="52" r="5" fill="#2563EB" />
  <circle cx="88" cy="68" r="5" fill="#2563EB" />
  <circle cx="116" cy="44" r="5" fill="#2563EB" />
  <rect x="48" y="112" width="224" height="44" rx="12" fill="white" opacity="0.9" />
  <rect x="64" y="124" width="96" height="12" rx="6" fill="#1D4ED8" opacity="0.75" />
  <rect x="64" y="142" width="160" height="8" rx="4" fill="#93C5FD" opacity="0.8" />
  <rect x="176" y="40" width="96" height="12" rx="6" fill="#22C55E" opacity="0.7" />
  <defs>
    <linearGradient id="paint0_linear" x1="8" y1="16" x2="312" y2="184" gradientUnits="userSpaceOnUse">
      <stop offset="0" stop-color="#EFF6FF" />
      <stop offset="1" stop-color="#DBEAFE" />
    </linearGradient>
  </defs>
</svg>
